<svg xmlns="http://www.w3.org/2000/svg" viewBox="0 0 400 240" width="400" height="240">
  <defs>
    <linearGradient id="skyStorm" x1="0" y1="0" x2="0" y2="1">
      <stop offset="0%" stop-color="#1a2028" />
      <stop offset="60%" stop-color="#2a2a38" />
      <stop offset="100%" stop-color="#3a3838" />
    </linearGradient>
    <linearGradient id="seaStorm" x1="0" y1="0" x2="0" y2="1">
      <stop offset="0%" stop-color="#2a3a48" />
      <stop offset="100%" stop-color="#0a1820" />
    </linearGradient>
  </defs>
  <rect width="400" height="170" fill="url(#skyStorm)" />
  <ellipse cx="80" cy="40" rx="90" ry="30" fill="#1a1a28" opacity="0.8" />
  <ellipse cx="200" cy="30" rx="120" ry="35" fill="#1a1a28" opacity="0.9" />
  <ellipse cx="320" cy="50" rx="100" ry="28" fill="#1a1a28" opacity="0.8" />
  <ellipse cx="140" cy="60" rx="80" ry="20" fill="#222230" opacity="0.7" />
  <ellipse cx="280" cy="70" rx="90" ry="22" fill="#222230" opacity="0.7" />
  <polyline points="220,20 210,55 225,60 215,95 230,100 220,130" stroke="#e8d080" stroke-width="2.5" fill="none" stroke-linejoin="round" />
  <polyline points="218,28 212,52 222,56 216,88 226,92" stroke="#fff8d0" stroke-width="1.2" fill="none" stroke-linejoin="round" opacity="0.6" />
  <g stroke="#7a8898" stroke-width="0.8" opacity="0.4">
    <line x1="60" y1="20" x2="40" y2="120" />
    <line x1="90" y1="40" x2="70" y2="140" />
    <line x1="150" y1="30" x2="130" y2="130" />
    <line x1="260" y1="50" x2="240" y2="150" />
    <line x1="300" y1="40" x2="280" y2="140" />
    <line x1="350" y1="60" x2="330" y2="160" />
    <line x1="130" y1="70" x2="110" y2="170" />
    <line x1="380" y1="80" x2="360" y2="180" />
  </g>
  <rect y="170" width="400" height="70" fill="url(#seaStorm)" />
  <path d="M0 180 Q 20 165 40 180 Q 60 195 80 180 Q 110 160 140 180 Q 170 200 200 180 Q 230 160 260 180 Q 290 195 320 180 Q 350 165 380 180 L 400 180 L 400 190 Q 370 175 340 190 Q 310 205 280 190 Q 250 175 220 190 Q 190 205 160 190 Q 130 175 100 190 Q 70 205 40 190 L 0 190 Z" fill="#2a4a5a" />
  <path d="M0 190 Q 30 175 60 190 Q 90 205 120 190 Q 150 175 180 190 Q 210 205 240 190 Q 270 175 300 190 Q 330 205 360 190 Q 380 178 400 190 L 400 200 Q 370 190 340 200 Q 310 210 280 200 Q 250 190 220 200 Q 190 210 160 200 Q 130 190 100 200 Q 70 210 40 200 L 0 200 Z" fill="#1a3a4a" />
  <path d="M0 200 Q 40 190 80 200 Q 120 210 160 200 Q 200 190 240 200 Q 280 210 320 200 Q 360 190 400 200 L 400 240 L 0 240 Z" fill="#0a2a3a" />
  <g fill="none" stroke="#9ab8c8" stroke-width="2.5" opacity="0.6" stroke-linecap="round">
    <path d="M 10 178 Q 15 174 20 178" />
    <path d="M 50 178 Q 55 174 60 178" />
    <path d="M 110 178 Q 115 174 120 178" />
    <path d="M 180 178 Q 185 174 190 178" />
    <path d="M 230 178 Q 235 174 240 178" />
    <path d="M 290 178 Q 295 174 300 178" />
    <path d="M 350 178 Q 355 174 360 178" />
  </g>
  <ellipse cx="100" cy="185" rx="30" ry="6" fill="#6a8a9a" opacity="0.25" />
  <ellipse cx="280" cy="195" rx="40" ry="8" fill="#6a8a9a" opacity="0.2" />
</svg>