<svg xmlns="http://www.w3.org/2000/svg" viewBox="0 0 760 460">
 <style>
  .land {
    fill: #2a221a;
    stroke: #5a4a32;
    stroke-width: 0.2;
    stroke-linejoin: round;
  }
  .tinyland {
    fill: #2a221a;
    stroke: #5a4a32;
    stroke-width: 0.2;
    stroke-linejoin: round;
  }
  .sea-grid {
    stroke: #3e3222;
    fill: none;
  }
</style>
 
  <g transform="matrix(1.80666666667 0 0 1.7666666667 -348.6666666730 -290.6666666728)">
    <defs>
      <clipPath id="navCrop">
        <rect x="300" y="190" width="460" height="278" />
      </clipPath>
    </defs>
    <g transform="matrix(1.6521739130 0 0 1.6546762590 -495.6521739130 -314.3884892086)" clip-path="url(#navCrop)">
      <path class="land" data-id="MX" d="M449.3 335.9l2.2-0.2-3.2 5.7-1.8 4.6-1.8 8.6-1.1 3.1 0.4 3.5 1.3 3.2 0.4 4.9 3 4.8 0.8 3.7 1.7 3.1 5.7 1.7 1.9 2.7 5.2-1.8 4.3-0.6 4.4-1.2 3.6-1.1 3.9-2.6 1.8-3.7 1.2-5.4 1.2-1.9 4-1.7 6.1-1.5 4.9 0.3 3.4-0.6 1.2 1.4-0.6 3.1-3.5 3.8-1.8 3.9 0.9 1.1-1.2 2.8-2.1 5-1.2-1.7-1.1 0.1-1.1 0.1-2.5 3.9-0.9-0.8-0.7 0.3-0.1 1-5.2-0.1-5.2 0-0.5 3.6-2.5 0.1 1.8 2.1 1.9 1.5 0.5 1.4 0.8 0.4-0.4 2.2-7.2 0-3.3 5.2 0.7 1.2-0.8 1.5-0.4 1.9-5.6-6.9-2.6-2.1-4.4-1.7-3.2 0.5-4.8 2.4-2.9 0.6-3.7-1.7-4.1-1.2-4.8-2.9-4.1-0.9-5.9-3-4.3-3.1-1.1-1.7-3.1-0.4-5.4-2-1.9-2.9-5.4-3.7-2.2-4-0.8-3.2 1.9-0.6-0.3-1.8 1.6-1.7 0.4-2.2-1.5-2.9 0-2.5-1.3-3.3-3.8-6.4-4.6-5-1.9-4-4.1-2.6-0.7-1.6 1.7-3.9-2.4-1.5-2.5-3.2-0.2-4.4-2.8-0.6-2.3-3.3-1.7-3.2 0.3-2-1.5-4.8-0.3-4.9 0.8-2.5-3.1-2.6-1.9 0.3-2.4-1.7-1.8 2.6-0.1 3-1 4.9 1 2.6 2.8 4.4 0.4 1.6 0.7 0.4 0.1 2.2 1-0.1 0 4.2 1.3 1.6 0.5 2.3 2.7 3.2 0.4 6 1 2.8 0.9 3-0.3 3.4 2.6 0.2 1.6 2.9 1.5 2.9-0.3 1.2-2.8 2.3-1 0-0.7-3.9-2.9-3.7-3.4-3.1-2.5-1.6 1.2-4.7-0.1-3.5-2.1-2-3.1-2.8-0.9 0.8-1-1.7-3-1.5-2.2-3.8 0.5-0.4 2.1 0.3 2.7-2.4 1-2.9-2.9-4.6-2.6-1.7-0.8-4-0.6-4.3-0.8-5.1-0.2-5.8 6.3-0.5 7.1-0.7-0.9 1.3 7 3.1 10.9 4.5 10.8 0 4.3 0 0.8-2.7 9.4 0 1.3 2.3 2.1 2.1 2.4 2.8 0.8 3.3 0.4 3.6 2.3 1.9 4 1.9 4.8-5 4.5-0.2 3.2 2.6 1.6 4.4 0.9 3.8 2.4 3.6 0.2 4.5 0.9 3 3.9 2 3.6 1.4z" />
<path class="land" data-id="BZ" d="M487.8 399.8l-1.7 0 1.3-7.2 0.7-5.1 0.1-1 0.7-0.3 0.9 0.8 2.5-3.9 1.1-0.1-0.1 1 1 0-0.3 1.8-1.3 2.7 0.4 1-0.9 2.3 0.3 0.6-1 3.3-1.3 1.7-1.1 0.2-1.3 2.2z" />
<path class="land" data-id="GT" d="M488.1 387.5l-0.7 5.1-1.3 7.2 1.7 0 1.7 1.2 0.6-1 1.5 0.8-2.8 2.5-2.9 1.8-0.5 1.2 0.3 1.3-1.3 1.6-1.4 0.4 0.3 0.8-1.2 0.7-2 1.6-0.3 0.9-2.8-1.1-3.5-0.1-2.4-1.3-2.8-2.6 0.4-1.9 0.8-1.5-0.7-1.2 3.3-5.2 7.2 0 0.4-2.2-0.8-0.4-0.5-1.4-1.9-1.5-1.8-2.1 2.5-0.1 0.5-3.6 5.2 0 5.2 0.1z" />
<path class="land" data-id="HN" d="M519.6 405.5l-1.9-0.1-0.9 0.9-2 0.8-1.4 0-1.3 0.8-1.1-0.2-0.9-1-0.6 0.2-0.9 1.5-0.5-0.1-0.2 1.4-2.1 1.7-1.2 0.8-0.6 0.8-1.5-1.3-1.4 1.7-1.2 0-1.3 0.1-0.2 3.2-0.8 0-0.8 1.5-1.8 0.3-0.8-2-1.7-0.6 0.7-2.6-0.7-0.7-1.2-0.4-2.5 0.7-0.1-0.8-1.6-1.1-1.1-1.2-1.6-0.6 1.3-1.6-0.3-1.3 0.5-1.2 2.9-1.8 2.8-2.5 0.6 0.3 1.3-1.1 1.6-0.1 0.5 0.5 0.9-0.3 2.6 0.6 2.6-0.2 1.8-0.7 0.8-0.7 1.7 0.3 1.3 0.4 1.5-0.1 1.2-0.6 2.5 0.9 0.8 0.2 1.6 1.2 1.5 1.4 1.9 1 1.3 1.7z" />
<path class="land" data-id="NI" d="M519.6 405.5l-0.5 0.7-0.5 1.4 0.4 2.3-1.5 2.2-0.8 2.6-0.5 2.8 0.2 1.7-0.1 2.9-0.9 0.6-0.7 2.8 0.2 1.7-1.2 1.6 0.1 1.7 0.8 1.1-1.4 1.4-1.7-0.5-0.8-1.3-1.8-0.5-1.3 0.8-3.6-1.7-0.9 0.8-1.8-2-2.5-2.6-1.1-2.1-2.2-2.1-2.5-2.9 0.7-1 0.8 1 0.5-0.4 1.8-0.3 0.8-1.5 0.8 0 0.2-3.2 1.3-0.1 1.2 0 1.4-1.7 1.5 1.3 0.6-0.8 1.2-0.8 2.1-1.7 0.2-1.4 0.5 0.1 0.9-1.5 0.6-0.2 0.9 1 1.1 0.2 1.3-0.8 1.4 0 2-0.8 0.9-0.9 1.9 0.1z" />
<path class="land" data-id="CR" d="M514.6 431.6l1.2 3.5 2 2.6 2.5 2.7-2.2 0.6-0.1 2.6 1.1 0.9-0.9 0.8 0.2 1.1-0.6 1.3-0.3 1.3-3-1.4-1.1-1.4 0.7-1.1-0.1-1.4-1.5-1.5-2.2-1.3-1.8-0.8-0.3-1.9-1.4-1.1 0.2 1.8-1.2 1.6-1.2-1.8-1.7-0.7-0.7-1.2 0.1-2 0.9-2-1.5-0.9 1.4-1.3 0.9-0.8 3.6 1.7 1.3-0.8 1.8 0.5 0.8 1.3 1.7 0.5 1.4-1.4z" />
<path class="land" data-id="PA" d="M549.3 446.2l-0.7 0.9 1.1 3.8-1.1 1.9-1.8-0.5-0.9 3.1-1.8-1.8-1-3.5 1.4-1.7-1.4-0.4-0.9-2.1-2.8-1.8-2.4 0.4-1.3 2.2-2.4 1.6-1.2 0.2-0.6 1.4 2.5 3.5-1.6 0.8-0.8 0.9-2.7 0.4-0.8-3.9-0.8 1.1-1.8-0.4-1-2.5-2.3-0.5-1.5-0.7-2.4 0-0.2 1.4-0.6-1 0.3-1.3 0.6-1.3-0.2-1.1 0.9-0.8-1.1-0.9 0.1-2.6 2.2-0.6 1.9 2.3-0.2 1.4 2.2 0.3 0.6-0.6 1.5 1.6 2.8-0.5 2.5-1.6 3.5-1.3 2-1.9 3.1 0.4-0.2 0.6 3.1 0.2 2.4 1.2 1.8 1.9 2 1.8z" />
<path class="land" data-id="CO" d="M584.4 426.2l-3.7 1.1-1.6 3.2-2.3 1.8-1.8 2.4-0.9 4.6-1.8 3.8 2.9 0.4 0.6 2.9 1.2 1.5 0.3 2.5-0.7 2.4 0.1 1.4 1.4 0.5 1.2 2.2 7.3-0.6 3.3 0.8 3.8 5.6 2.3-0.7 4.1 0.3 3.2-0.7 2 1.1-1.2 3.4-1.3 2.2-0.6 4.6 1.1 4.3 1.5 1.9 0.2 1.4-2.9 3.2 2 1.4 1.5 2.3 1.6 6.4-1.1 0.8-1-3.8-1.6-2.1-1.9 2.3-11-0.2 0 4 3.3 0.7-0.2 2.5-1.1-0.7-3.2 1-0.1 4.7 2.6 2.4 0.9 3.6-0.1 2.8-2.2 17.6-2.9-3.4-1.7-0.1 3.5-6.6-4.4-3-3.4 0.6-2.1-1.1-3.1 1.7-4.2-0.9-3.5-6.7-2.6-1.6-1.8-3.1-3.8-3-1.5 0.6-2.4-1.5-2.8-2.1-1.6 1-4.8-0.9-1.4-2.8-1.1 0.1-5.6-3.6-0.7-2 2.1-0.5-0.2-3.2 1.4-2.4 2.8-0.4 2.5-4 2.2-3.4-2-1.5 1.2-3.7-1.1-5.9 1.3-1.7-0.7-5.4-2.2-3.5 0.9-3.1 1.8 0.5 1.1-1.9-1.1-3.8 0.7-0.9 2.9 0.2 4.5-4.5 2.4-0.7 0.1-2.1 1.4-5.5 3.4-2.9 3.5-0.2 0.6-1.3 4.4 0.5 4.6-3.2 2.3-1.4 2.9-3.1 2 0.4 1.3 1.7-1.2 2.1z" />
<path class="land" data-id="VE" d="M648.7 448.1l-4.7 3.8-0.5 2.3 1.8 2.4-1.4 1.2-3.5 1 0 3-1.6 1.8 3.7 4.8 0.7 1.8-2.1 2.5-6.4 2.4-4.1 1-1.7 1.5-4.5-1.6-4.1-0.8-1.1 0.6 2.5 1.6-0.3 4.3 0.7 4.1 4.8 0.5 0.3 1.4-4.1 1.8-0.7 2.7-2.4 1.1-4.2 1.5-1.1 2-4.4 0.4-3.1-3.4-1.6-6.4-1.5-2.3-2-1.4 2.9-3.2-0.2-1.4-1.5-1.9-1.1-4.3 0.6-4.6 1.3-2.2 1.2-3.4-2-1.1-3.2 0.7-4.1-0.3-2.3 0.7-3.8-5.6-3.3-0.8-7.3 0.6-1.2-2.2-1.4-0.5-0.1-1.4 0.7-2.4-0.3-2.5-1.2-1.5-0.6-2.9-2.9-0.4 1.8-3.8 0.9-4.6 1.8-2.4 2.3-1.8 1.6-3.2 3.7-1.1-0.2 1.5-3.4 0.8 1.7 2.9-0.3 3.4-2.7 3.7 1.9 5.1 2.5-0.4 1.5-4.7-1.7-2.2 0-4.9 7.2-2.6-0.6-3 2.1-2.1 1.7 4.6 4 0.1 3.4 3.5 0.2 2.2 5 0 6.1-0.6 3.1 2.8 4.2 0.8 3.3-2 0.1-1.6 7.1-0.4 6.7-0.1-4.9 1.9 1.8 3.1 4.5 0.4 4.2 3.2 0.7 5.1 2.9-0.1 2.2 1.5z" />
<path class="land" data-id="GY" d="M662.9 463.5l-1 5.8-3.5 1.6 0.3 1.5-1.1 3.4 2.4 4.6 1.8 0 0.7 3.6 3.3 5.6-1.3 0.3-3.2-0.6-1.8 1.7-2.6 1.1-1.8 0.3-0.6 1.3-2.8-0.3-3.5-3-0.3-3-1.4-3.3 1-5.4 1.6-2.3-1.2-3-2-0.9 0.8-2.9-1.2-1.4-3 0.2-3.7-4.8 1.6-1.8 0-3 3.5-1 1.4-1.2-1.8-2.4 0.5-2.3 4.7-3.8 3.6 2.4 3.3 4.1 0.1 3.4 2.1 0.1 3 3.1 2.1 2.3z" />
<path class="land" data-id="SR" d="M681 464.9l-3.1 5.5 0.3 4.4 2.2 3.8-1.1 2.7-0.5 3-1.5 2.7-3.2-1.4-2.7 0.7-2.3-0.6-0.6 1.9 1 1.2-0.6 1.4-3.1-0.6-3.3-5.6-0.7-3.6-1.8 0-2.4-4.6 1.1-3.4-0.3-1.5 3.5-1.6 1-5.8 6.8 1.3 0.6-1.2 4.6-0.5 6.1 1.8z" />
<path class="land" data-id="GF" d="M677.3 487l1.5-2.8 0.5-2.9 1-2.7-2.1-3.8-0.3-4.4 3.1-5.5 1.9 0.7 4.1 1.5 5.9 5.4 0.8 2.6-3.4 5.9-1.8 4.7-2.2 2.5-2.7 0.4-0.8-1.8-1.3-0.2-1.7 1.7-2.5-1.3z" />
<path class="land" data-id="BR" d="M665.8 489.6l3.1 0.6 0.6-1.4-1-1.2 0.6-1.9 2.3 0.6 2.7-0.7 3.2 1.4 2.5 1.3 1.7-1.7 1.3 0.2 0.8 1.8 2.7-0.4 2.2-2.5 1.8-4.7 3.4-5.9 2-0.3 1.3 3.6 3 11.2 3.1 1.1 0.1 4.4-4.3 5.3 1.7 1.9 10.1 1 0.2 6.5 4.3-4.2 7.1 2.3 9.5 3.9 2.8 3.7-0.9 3.6 6.6-2 11 3.4 8.5-0.2 8.4 5.3 7.4 7.2 4.4 1.8 4.8 0.3 2.1 2 2 8.2 1.1 3.9-2.1 10.6-2.7 4.2-7.7 8.9-3.4 7.3-4 5.5-1.4 0.2-1.3 4.7 0.9 12-1.1 9.9-0.3 4.2-1.6 2.6-0.5 8.6-5.2 8.3-0.5 6.7-4.3 2.7-1.1 3.9-6 0-8.5 2.4-3.7 2.9-6 1.9-6.1 5.1-4.1 6.4-0.3 4.8 1.3 3.5-0.3 6.5-0.8 3.1-3.4 3.6-4.5 11.3-4 5-3.2 3.1-1.5 6.1-2.9 3.6-2.1-3.6 1.8-3.1-3.8-4.3-4.8-3.6-6.3-4.1-1.9 0.2-6.3-5-3.4 0.7 6-8.7 5.3-6.3 3.3-2.6 4.2-3.5-0.4-5.1-3.2-3.8-2.6 1.3 0.7-3.7 0.3-3.8-0.3-3.6-2.1-1.1-2 1-2.1-0.3-0.8-2.4-1.1-5.9-1.2-1.9-3.9-1.8-2.2 1.3-5.9-1.3-0.4-8.7-2-3.5 1.6-1.4-0.8-3.6 1.3-2.8 0.6-5.1-1.7-4-3.2-1.8-0.8-2.5 0.5-3.7-10.7-0.3-2.8-7.5 1.7-0.1-0.3-2.7-1.2-1.9-0.5-3.7-3.4-1.9-3.5 0-2.5-1.8-3.9-1.3-2.3-2.4-6.4-1.1-6.5-5.7 0.3-4.3-0.9-2.5 0.4-4.8-7.3 1.1-2.9 2.4-4.8 2.6-1.1 1.9-2.9 0.2-4.2-0.6-3.2 1.1-2.6-0.7-0.1-9.7-4.4 3.7-5-0.1-2.3-3.5-3.8-0.3 1-2.8-3.3-3.9-2.6-5.8 1.5-1.1-0.2-2.8 3.4-1.8-0.7-3.5 1.4-2.2 0.3-3 6.3-4.4 4.6-1.2 0.8-1 5.1 0.3 2.2-17.6 0.1-2.8-0.9-3.6-2.6-2.4 0.1-4.7 3.2-1 1.1 0.7 0.2-2.5-3.3-0.7 0-4 11 0.2 1.9-2.3 1.6 2.1 1 3.8 1.1-0.8 3.1 3.4 4.4-0.4 1.1-2 4.2-1.5 2.4-1.1 0.7-2.7 4.1-1.8-0.3-1.4-4.8-0.5-0.7-4.1 0.3-4.3-2.5-1.6 1.1-0.6 4.1 0.8 4.5 1.6 1.7-1.5 4.1-1 6.4-2.4 2.1-2.5-0.7-1.8 3-0.2 1.2 1.4-0.8 2.9 2 0.9 1.2 3-1.6 2.3-1 5.4 1.4 3.3 0.3 3 3.5 3 2.8 0.3 0.6-1.3 1.8-0.3 2.6-1.1 1.8-1.7 3.2 0.6 1.3-0.3z" />
<path class="land" data-id="CU" d="M544.8 355.7l1.9 2.3 5.2-0.7 1.8 1.5 4.2 4 3.2 2.9 1.8-0.1 3.2 1.3-0.6 1.8 4 0.3 3.9 2.6-0.8 1.5-3.8 0.8-3.8 0.3-3.7-0.5-8.1 0.6 4.2-3.5-2.1-1.7-3.6-0.4-1.7-1.9-0.8-3.6-3.2 0.2-5-1.7-1.5-1.4-7.1-1-1.8-1.2 2.3-1.6-5.4-0.3-4.4 3.3-2.3 0.1-1 1.6-2.8 0.7-2.3-0.7 3.2-1.9 1.5-2.4 2.7-1.4 3-1.2 4.3-0.6 1.4-0.8 4.7 0.5 4.4 0.1 4.9 2.2z" />
<path class="tinyland" data-id="JM" d="M556.5 387.1l-1.8 1.1-3-1.1-2.9-2.3 0.8-1.5 2.4-0.4 1.3 0.2 3.7 0.6 2.7 1.5 0.8 1.8-4 0.1z" />
<path class="land" data-id="HT" d="M586.8 375.3l0.1 3.4-0.7 2.5-1.5 1.1 1.3 1.9-0.3 1.8-3.6-1.1-2.7 0.4-3.4-0.4-2.7 1.2-2.8-2 0.7-2.1 5.1 0.9 4.1 0.5 2.2-1.4-2.3-2.8 0.4-2.5-3.5-1 1.5-1.7 3.4 0.2 4.7 1.1z" />
<path class="land" data-id="DO" d="M585.7 386l0.3-1.8-1.3-1.9 1.5-1.1 0.7-2.5-0.1-3.4 0.8-1.1 4.3 0 3.2 1.6 1.5-0.1 0.7 2.3 3.1-0.2-0.4 1.9 2.5 0.3 2.5 2.3-2.3 2.6-2.6-1.4-2.6 0.3-1.8-0.3-1.1 1.2-2.2 0.4-0.7-1.6-1.9 0.9-2.7 4.4-1.3-1-0.1-1.8z" />
<path class="land" data-id="US" d="M 539.5 194.5 533.4 196.5 528.7 199 524.1 201.7 523.6 202.6 529.3 201.3 531.4 203.4 536 201.9 540.9 199.8 546.3 197.7 543.2 201 545.7 201.8 548.2 204.2 553.3 202.8 558.4 202.3 558.7 204.1 560.2 204.3 561.4 204.5 562.9 207 558.2 207.6 558.1 207.6 554.4 206.9 549.9 208.1 546.2 208.7 541.5 212.8 538.5 215.1 538.9 215.8 544.4 211.7 545.1 211.7 540.4 216.6 537.5 221 535 224.6 534.4 227.7 533.6 229.2 533 230.9 533.1 234.2 533.4 234.7 535.2 234.6 536.8 233.9 538.2 233.1 541.5 230 543.3 225.8 543.2 221.9 544.6 219.2 547.2 216.1 549.3 213.9 552 212.4 551.6 214.5 553.8 211.4 555.1 210.8 556.8 208.4 560.6 209.7 563.4 212.1 562.6 215 561 217.9 557.2 220.4 556.8 222 557.8 222 562.1 219.3 563.7 219.9 563.2 223.6 562.5 226.2 558.8 229.7 556.8 231.9 554.1 234.3 556.8 235.6 559.3 236 563.3 235.1 567 233.4 570 232.5 574.6 230.7 580.4 226.9 580.5 226.3 580.8 224.4 583.5 223.6 587.4 223.9 591.4 224.4 596 222.3 596.6 219.8 596.4 218.9 603.2 214.5 605.9 213.4 613.7 213.3 623 213.3 624.1 211.8 625.8 211.5 628.3 210.5 631.1 207.6 634.3 202.7 639.8 198 640.9 199.6 644.6 198.6 646.2 200.4 643.3 208.9 645.5 212.5 645.7 214.6 639.3 217.6 633.3 219.8 627.3 221.7 623.3 225.5 622 226.9 620.8 230.3 621.5 233.6 623.6 233.8 623.8 231.5 624.9 232.9 623.9 234.7 620.1 235.7 617.6 235.6 613.4 236.7 611.1 237 608 237.3 603 239.2 611.1 238 612.2 239.2 604.3 241.1 601 241.1 601.4 240.3 599.3 242.1 600.7 242.4 598.2 247 592.9 251.9 593 250.2 591.9 249.9 590.7 248.3 590.7 251.8 591.7 252.9 591.1 255.3 588.7 257.8 584.2 262.9 583.8 262.7 586.7 258.3 584.7 255.9 585.7 250.5 583.8 253.3 583.8 257.4 580.6 256.4 583.6 258.4 582.1 264.5 583.5 265 583.5 267.2 582.5 273.6 577.9 278.3 571.8 280.2 567.4 284 564.6 284.4 561.2 286.8 559.9 288.9 553 293.1 549.2 296.2 545.7 300 543.8 304.5 543.8 309 544.4 314.5 545.9 319 545.4 321.8 546.7 329.2 545.7 333.6 545.1 336.1 543.1 340 541.3 340.8 538.7 340 538.3 337.2 536.5 335.7 534.5 330.2 532.9 325.3 532.5 322.8 534.5 318.5 533.7 315 530.6 309.6 528.7 308.6 522.6 311.6 521.7 311.2 519.7 308.2 516.7 306.6 510.3 307.5 505.7 306.7 501.4 307.2 498.9 308.2 499.5 309.9 498.8 312.5 499.6 313.8 498.4 314.6 496.6 313.7 494.3 314.9 490.4 314.7 487.1 311.3 482.2 312.1 478.6 310.6 475.1 311.1 470.1 312.6 464 317.3 457.9 320.1 454.2 323.1 452.3 326 451.3 330.5 450.9 333.5 451.5 335.7 449.3 335.9 445.7 334.5 441.8 332.5 440.9 329.5 440.7 325 438.3 321.4 437.4 317.6 435.8 313.2 432.6 310.6 428.1 310.8 423.3 315.8 419.3 313.9 417 312 416.6 308.4 415.8 305.1 413.4 302.3 411.3 300.2 410 297.9 400.6 297.9 399.8 300.6 395.5 300.6 384.7 300.6 373.8 296.1 366.8 293 367.7 291.7 360.6 292.4 354.3 292.9 354.6 289.7 352.5 286 350.3 285.2 350.4 283.4 347.5 283 346.3 281.3 341.5 280.7 340.6 279.6 341.4 276.1 338.9 269.7 338.4 260.8 339.3 259.3 338 257.2 336.5 251.8 338.3 246.6 337.4 243.1 341.3 237.8 344.1 232.4 345.2 227.5 350.7 221.5 354.7 215.8 358.7 210.1 363 201.6 364.8 196.3 365.2 193.4 366.6 192.1 372.4 194.3 371.4 200.2 373.6 198.5 376.1 193.4 377.7 188.3 391.8 188.3 406.5 188.3 411.3 188.3 426.4 188.3 441.1 188.3 455.9 188.3 470.8 188.3 487.6 188.3 504.6 188.3 514.8 188.3 516.1 185.9 517.8 185.9 516.9 189.3 517.9 190.3 521.2 190.7 525.8 191.7 529.7 193.6 534.1 192.8 539.5 194.5 Z" />
<path class="tinyland" data-id="BQSE" d="M634.3 389.6l-0.2 0.1 0-0.2 0.1-0.1 0.1 0.2z" />
<path class="tinyland" data-id="MQ" d="M644 406.9l0 0.2 0.4-0.1-0.2 0.5 0.2 0.2 0 0.2 0.2 0.2 0.2 0.9-0.3 0.3-0.1-0.4-0.1 0.1-0.6-0.1-0.4 0-0.2-0.3 0.6-0.5-0.4 0-0.4-0.4-0.1-0.5-0.2-0.5 0.3-0.4 0.4 0.1 0.5 0.3 0.2 0.2z" />
<path class="tinyland" data-id="BB" d="M651.5 418l-0.6-0.2-0.1-0.5 0-0.8 0.2-0.4 0.2 0.2 0.2 0.6 0.5 0.3 0.1 0.4-0.5 0.4z" />
<path class="tinyland" data-id="TT1" d="M 642.8 432.2 642.6 432.7 642.3 433.1 642.1 433.2 642 433.6 642.2 434.2 642 434.3 642 435 642.2 435.3 642.4 435.5 642.2 435.7 642.1 436 642.1 436.7 641.9 436.8 641.5 437 641 437.1 640.7 437.1 640.2 437.2 639.7 437.1 639.3 437.2 639 437.1 638.5 437.3 638.1 437.1 637.5 437.1 637.2 437.3 636.9 437.2 637.4 437 637.7 436.7 638.1 436.6 638.5 436.3 638.7 436 639.3 436.1 639.6 435.7 639.4 434.9 639.6 434.5 639.6 434 639.6 433.8 639.3 433.4 639 433.3 638.6 433.2 638.5 433.1 638.9 432.8 640 432.7 640.2 432.5 641.3 432.5 641.4 432.4 642.6 432.2 642.8 432.2 Z" />
<path class="tinyland" data-id="TT2" d="M 645.2 429 645.1 429.5 644.8 429.6 644.4 429.9 644.2 429.9 643.5 430.3 643.3 430.1 643.6 429.8 644.3 429.3 645.2 429 Z" />
    </g>
  </g>
</svg>